<svg width="756" height="258" viewBox="0 0 756 258" fill="none" xmlns="http://www.w3.org/2000/svg">
<g clip-path="url(#clip0_57_2528)">
<path d="M195.668 90.1416C205.192 95.625 205.244 104.544 195.783 110.039L151.247 135.85C141.785 141.339 126.33 141.333 116.805 135.85L71.9647 110.027C62.4398 104.544 62.388 95.625 71.8497 90.1301L116.385 64.3251C125.847 58.836 141.302 58.8418 150.827 64.3251L195.668 90.1416Z" fill="white"/>
<path d="M165.344 87.5034V87.4919L154.283 81.1252C152.885 89.0233 150.797 96.9157 153.909 104.716C155.065 107.624 157.101 110.24 159.638 112.695L174.063 104.332C172.924 103.214 171.837 102.066 170.819 100.914C166.925 96.4741 165.125 92.2583 165.338 87.4976L165.344 87.5034Z" fill="#FF7345"/>
<path d="M88.23 95.4988C85.4577 97.1106 85.4634 99.7203 88.2646 101.338L92.0377 103.506C92.2563 100.173 92.0722 96.8525 91.6293 93.5315L88.23 95.4988Z" fill="#FF7345"/>
<path d="M150.47 78.9456L150.475 78.9513L150.47 78.9456Z" fill="#FF7345"/>
<path d="M149.009 103.655C146.524 95.4185 149.25 87.1877 150.47 78.9512L138.65 72.1487C136.608 70.9671 133.652 70.6574 131.121 71.1965C132.57 75.8539 133.255 80.5687 133.025 85.3064C132.87 88.4897 132.346 91.6788 131.443 94.822C130.414 98.3609 128.636 101.906 129.206 105.525C130.155 111.57 136.625 117.449 142.676 122.531L156.365 114.599C152.794 111.249 150.205 107.653 149.009 103.661V103.655Z" fill="#FF7345"/>
<path d="M179.211 95.4931V95.4816L169.687 89.9983C169.75 90.9504 169.905 91.8968 170.244 92.8489C171.28 95.757 173.534 98.4757 175.985 101.063C176.422 101.521 176.87 101.98 177.325 102.433L179.24 101.321C182.024 99.7089 182.013 97.0991 179.217 95.4816L179.211 95.4931Z" fill="#FF7345"/>
<path d="M124.927 106.512C123.385 100.024 127.918 93.3136 128.464 86.8265C128.855 82.1691 128.378 77.5289 127.118 72.9575L113.032 81.1195C115.039 89.0003 112.739 97.1279 111.847 105.106C111.491 108.313 111.962 111.743 112.342 115.19L128.832 124.677C131.633 126.288 136.154 126.288 138.938 124.677L139.502 124.35C138.892 123.828 138.3 123.306 137.713 122.778C132.254 117.863 126.336 112.408 124.927 106.506V106.512Z" fill="#FF7345"/>
<path d="M109.028 83.4537L95.7471 91.1453C96.5063 95.8372 96.9032 100.546 96.3453 105.255C96.3165 105.479 96.282 105.714 96.2475 105.938L107.354 112.327C107.17 109.62 107.147 106.924 107.492 104.183C108.361 97.3055 110.19 90.2792 109.022 83.4365V83.448L109.028 83.4537Z" fill="#FF7345"/>
<path d="M213.268 100.747C213.544 95.3842 210.133 89.9696 203.024 85.8743V85.8858L158.195 60.0636C144.569 52.2171 122.54 52.2171 109 60.0636L64.4531 85.8686C57.6488 89.809 54.1173 94.9884 54.1805 100.156C54.1805 100.099 54.1805 156.55 54.1805 156.55C54.1633 161.718 57.5913 166.903 64.4416 170.843V170.855L109.282 196.671V196.66C122.914 204.506 144.943 204.506 158.483 196.66L203.018 170.849V170.838C209.76 166.943 213.124 161.833 213.142 156.728L213.297 100.173C213.297 100.363 213.28 100.552 213.274 100.741L213.268 100.747ZM195.771 110.033L151.236 135.844C141.762 141.333 126.319 141.327 116.794 135.844L71.9592 110.027C62.4343 104.538 62.3825 95.6251 71.8441 90.1302L116.38 64.3252C125.853 58.8361 141.296 58.8419 150.821 64.3252L195.662 90.1417C205.187 95.6308 205.239 104.544 195.777 110.039L195.771 110.033Z" fill="#FF7345"/>
</g>
<path fill-rule="evenodd" clip-rule="evenodd" d="M515.59 168.591L493.407 141.819V168.591H480.894V86.6858H493.407V139.662L515.476 113.988H530.378L507.371 140.168L531.516 168.591H515.59ZM545.659 165.975C549.678 168.478 554.153 169.729 559.082 169.729C563.254 169.729 566.97 168.857 570.231 167.112C572.411 165.896 574.269 164.391 575.805 162.598V168.591H588.318V113.988H575.805V120.065C574.222 118.257 572.326 116.762 570.117 115.58C566.932 113.76 563.254 112.85 559.082 112.85C554.153 112.85 549.678 114.139 545.659 116.718C541.715 119.22 538.568 122.633 536.217 126.956C533.942 131.203 532.804 136.019 532.804 141.403C532.804 146.712 533.942 151.528 536.217 155.85C538.568 160.097 541.715 163.472 545.659 165.975ZM572.278 153.234C569.472 156.343 565.756 157.898 561.13 157.898C558.096 157.898 555.404 157.216 553.053 155.85C550.778 154.41 548.958 152.438 547.593 149.935C546.304 147.432 545.659 144.551 545.659 141.289C545.659 138.028 546.304 135.147 547.593 132.644C548.958 130.141 550.778 128.207 553.053 126.842C555.404 125.401 558.096 124.681 561.13 124.681C564.239 124.681 566.932 125.401 569.207 126.842C571.558 128.207 573.378 130.141 574.667 132.644C575.956 135.147 576.601 138.028 576.601 141.289C576.601 146.143 575.16 150.125 572.278 153.234ZM620.065 169.729C617.032 169.729 614.112 169.35 611.306 168.591C608.5 167.757 605.922 166.62 603.57 165.179C601.22 163.662 599.172 161.842 597.428 159.718L605.391 151.755C607.287 153.954 609.448 155.623 611.875 156.761C614.377 157.822 617.183 158.353 620.293 158.353C623.099 158.353 625.222 157.936 626.663 157.102C628.104 156.268 628.825 155.054 628.825 153.462C628.825 151.793 628.142 150.504 626.777 149.594C625.412 148.684 623.63 147.925 621.43 147.319C619.307 146.636 617.032 145.954 614.605 145.271C612.254 144.588 609.979 143.678 607.78 142.541C605.656 141.327 603.912 139.697 602.547 137.649C601.182 135.602 600.499 132.947 600.499 129.686C600.499 126.198 601.295 123.202 602.888 120.699C604.556 118.197 606.869 116.263 609.827 114.898C612.861 113.533 616.463 112.85 620.634 112.85C625.033 112.85 628.901 113.646 632.237 115.239C635.65 116.756 638.494 119.069 640.769 122.178L632.806 130.141C631.214 128.169 629.393 126.691 627.346 125.705C625.298 124.719 622.947 124.226 620.293 124.226C617.79 124.226 615.856 124.605 614.491 125.363C613.126 126.122 612.444 127.221 612.444 128.662C612.444 130.179 613.126 131.355 614.491 132.189C615.856 133.023 617.601 133.744 619.724 134.35C621.923 134.957 624.199 135.64 626.55 136.398C628.976 137.08 631.251 138.066 633.375 139.356C635.574 140.569 637.357 142.237 638.722 144.361C640.087 146.409 640.769 149.101 640.769 152.438C640.769 157.746 638.911 161.955 635.195 165.065C631.479 168.174 626.436 169.729 620.065 169.729ZM676.454 169.729C670.993 169.729 666.064 168.515 661.665 166.089C657.342 163.586 653.892 160.173 651.313 155.85C648.81 151.528 647.559 146.674 647.559 141.289C647.559 135.905 648.81 131.089 651.313 126.842C653.816 122.519 657.191 119.107 661.438 116.604C665.76 114.101 670.538 112.85 675.771 112.85C680.852 112.85 685.327 114.026 689.194 116.377C693.138 118.728 696.209 121.951 698.409 126.046C700.684 130.141 701.822 134.805 701.822 140.038C701.822 140.948 701.746 141.896 701.594 142.882C701.518 143.792 701.366 144.816 701.139 145.954H660.403C660.744 147.376 661.24 148.703 661.893 149.935C663.258 152.514 665.192 154.523 667.694 155.964C670.197 157.329 673.079 158.012 676.34 158.012C679.146 158.012 681.724 157.519 684.075 156.533C686.502 155.547 688.55 154.106 690.218 152.21L698.181 160.287C695.527 163.396 692.304 165.747 688.512 167.34C684.72 168.933 680.701 169.729 676.454 169.729ZM661.779 132.189C661.206 133.267 660.76 134.443 660.442 135.715H689.504C689.177 134.108 688.694 132.667 688.057 131.393C686.919 129.117 685.289 127.373 683.165 126.16C681.118 124.946 678.577 124.34 675.543 124.34C672.358 124.34 669.59 125.022 667.239 126.387C664.888 127.752 663.068 129.686 661.779 132.189ZM424.348 165.975C428.367 168.478 432.841 169.729 437.771 169.729C441.942 169.729 445.658 168.857 448.919 167.112C451.099 165.896 452.957 164.391 454.493 162.598V168.591H467.007V113.988H454.493V120.065C452.911 118.257 451.015 116.762 448.805 115.58C445.62 113.76 441.942 112.85 437.771 112.85C432.841 112.85 428.367 114.139 424.348 116.718C420.404 119.22 417.257 122.633 414.906 126.956C412.63 131.203 411.493 136.019 411.493 141.403C411.493 146.712 412.63 151.528 414.906 155.85C417.257 160.097 420.404 163.472 424.348 165.975ZM450.967 153.234C448.161 156.343 444.445 157.898 439.819 157.898C436.785 157.898 434.093 157.216 431.742 155.85C429.467 154.41 427.646 152.438 426.281 149.935C424.992 147.432 424.348 144.551 424.348 141.289C424.348 138.028 424.992 135.147 426.281 132.644C427.646 130.141 429.467 128.207 431.742 126.842C434.093 125.401 436.785 124.681 439.819 124.681C442.928 124.681 445.62 125.401 447.895 126.842C450.246 128.207 452.066 130.141 453.356 132.644C454.645 135.147 455.29 138.028 455.29 141.289C455.29 146.143 453.849 150.125 450.967 153.234ZM316.923 168.591V113.988H329.436V119.57C330.91 117.916 332.654 116.548 334.669 115.466C337.778 113.722 341.267 112.85 345.135 112.85C349.002 112.85 352.491 113.684 355.6 115.353C358.551 116.936 360.921 119.134 362.711 121.947C364.696 119.189 367.179 117.028 370.161 115.466C373.422 113.722 376.987 112.85 380.855 112.85C384.798 112.85 388.363 113.684 391.548 115.353C394.733 117.021 397.274 119.372 399.17 122.406C401.066 125.439 402.013 129.079 402.013 133.326V168.591H389.5V136.057C389.5 132.416 388.363 129.61 386.087 127.639C383.812 125.591 381.006 124.567 377.669 124.567C375.47 124.567 373.46 125.022 371.64 125.932C369.82 126.842 368.379 128.169 367.317 129.914C366.256 131.582 365.725 133.63 365.725 136.057V168.591H353.211V136.057C353.211 132.416 352.074 129.61 349.799 127.639C347.524 125.591 344.718 124.567 341.381 124.567C339.106 124.567 337.058 125.022 335.238 125.932C333.493 126.842 332.09 128.169 331.029 129.914C329.967 131.582 329.436 133.63 329.436 136.057V168.591H316.923ZM249.016 166.544C253.945 168.667 259.254 169.729 264.942 169.729C270.554 169.729 275.787 168.667 280.641 166.544C285.57 164.42 289.855 161.5 293.495 157.784C297.211 154.068 300.093 149.745 302.141 144.816C304.264 139.811 305.326 134.464 305.326 128.776C305.326 123.088 304.264 117.78 302.141 112.85C300.093 107.845 297.211 103.484 293.495 99.7679C289.779 95.976 285.456 93.0562 280.527 91.0086C275.673 88.8851 270.402 87.8234 264.715 87.8234C259.027 87.8234 253.718 88.8851 248.788 91.0086C243.935 93.0562 239.65 95.976 235.934 99.7679C232.294 103.484 229.412 107.807 227.288 112.736C225.241 117.666 224.217 122.974 224.217 128.662C224.217 134.35 225.241 139.697 227.288 144.702C229.412 149.632 232.332 153.992 236.048 157.784C239.764 161.5 244.086 164.42 249.016 166.544ZM278.82 153.575C274.801 156.002 270.099 157.216 264.715 157.216C260.771 157.216 257.131 156.533 253.794 155.168C250.457 153.727 247.575 151.755 245.148 149.252C242.797 146.75 240.939 143.754 239.574 140.266C238.285 136.701 237.64 132.833 237.64 128.662C237.64 123.05 238.778 118.121 241.053 113.874C243.404 109.627 246.589 106.328 250.609 103.977C254.704 101.55 259.406 100.337 264.715 100.337C268.734 100.337 272.374 101.019 275.635 102.384C278.972 103.749 281.854 105.721 284.281 108.3C286.708 110.802 288.566 113.798 289.855 117.287C291.22 120.699 291.903 124.491 291.903 128.662C291.903 134.274 290.727 139.242 288.376 143.565C286.101 147.812 282.916 151.148 278.82 153.575Z" fill="white"/>
<defs>
<clipPath id="clip0_57_2528">
<rect width="159.117" height="148.366" fill="white" transform="translate(54.1797 54.1787)"/>
</clipPath>
</defs>
</svg>
