<svg width="529" height="324" viewBox="0 0 529 324" fill="none" xmlns="http://www.w3.org/2000/svg">
<path d="M456.732 276.362C451.808 276.362 447.362 275.268 443.395 273.079C439.496 270.822 436.384 267.744 434.059 263.845C431.801 259.947 430.673 255.569 430.673 250.713C430.673 245.857 431.801 241.513 434.059 237.683C436.316 233.784 439.359 230.706 443.19 228.449C447.088 226.192 451.397 225.064 456.117 225.064C460.7 225.064 464.735 226.124 468.223 228.244C471.78 230.364 474.55 233.271 476.534 236.965C478.586 240.658 479.612 244.865 479.612 249.584C479.612 250.405 479.543 251.26 479.406 252.149C479.338 252.97 479.201 253.893 478.996 254.919H438.573V245.686H473.148L468.941 249.379C468.805 246.37 468.223 243.839 467.197 241.787C466.171 239.735 464.701 238.162 462.786 237.067C460.939 235.973 458.648 235.426 455.912 235.426C453.039 235.426 450.542 236.041 448.422 237.273C446.302 238.504 444.66 240.248 443.497 242.505C442.335 244.694 441.753 247.327 441.753 250.405C441.753 253.483 442.369 256.185 443.6 258.51C444.831 260.836 446.575 262.648 448.832 263.948C451.09 265.179 453.689 265.795 456.63 265.795C459.161 265.795 461.486 265.35 463.606 264.461C465.795 263.572 467.642 262.272 469.147 260.562L476.328 267.846C473.935 270.651 471.028 272.771 467.608 274.208C464.188 275.644 460.563 276.362 456.732 276.362Z" fill="#212121"/>
<path d="M405.876 276.362C403.14 276.362 400.507 276.02 397.976 275.336C395.445 274.584 393.12 273.558 390.999 272.258C388.879 270.89 387.032 269.249 385.459 267.334L392.641 260.152C394.351 262.135 396.3 263.64 398.489 264.666C400.746 265.624 403.277 266.102 406.081 266.102C408.612 266.102 410.527 265.726 411.826 264.974C413.126 264.221 413.776 263.127 413.776 261.691C413.776 260.186 413.16 259.023 411.929 258.202C410.698 257.382 409.09 256.698 407.107 256.15C405.192 255.535 403.14 254.919 400.951 254.304C398.831 253.688 396.779 252.867 394.795 251.841C392.88 250.747 391.307 249.276 390.076 247.43C388.845 245.583 388.229 243.189 388.229 240.248C388.229 237.102 388.947 234.4 390.384 232.143C391.888 229.886 393.975 228.142 396.642 226.91C399.378 225.679 402.627 225.064 406.389 225.064C410.356 225.064 413.844 225.782 416.854 227.218C419.931 228.586 422.496 230.672 424.548 233.477L417.367 240.658C415.93 238.88 414.289 237.546 412.442 236.657C410.595 235.768 408.475 235.323 406.081 235.323C403.824 235.323 402.08 235.665 400.849 236.349C399.617 237.033 399.002 238.025 399.002 239.325C399.002 240.693 399.617 241.753 400.849 242.505C402.08 243.257 403.653 243.907 405.568 244.454C407.552 245.002 409.603 245.617 411.724 246.301C413.912 246.917 415.964 247.806 417.88 248.969C419.863 250.063 421.47 251.568 422.702 253.483C423.933 255.33 424.548 257.758 424.548 260.767C424.548 265.555 422.873 269.351 419.521 272.156C416.17 274.96 411.621 276.362 405.876 276.362Z" fill="#212121"/>
<path d="M350.876 276.362C346.43 276.362 342.394 275.233 338.769 272.976C335.213 270.719 332.374 267.676 330.254 263.845C328.202 259.947 327.176 255.603 327.176 250.815C327.176 245.959 328.202 241.616 330.254 237.786C332.374 233.887 335.213 230.809 338.769 228.552C342.394 226.226 346.43 225.064 350.876 225.064C354.638 225.064 357.955 225.884 360.828 227.526C363.769 229.099 366.094 231.288 367.804 234.092C369.514 236.896 370.369 240.077 370.369 243.634V257.792C370.369 261.349 369.514 264.529 367.804 267.334C366.163 270.138 363.871 272.361 360.93 274.002C357.989 275.575 354.638 276.362 350.876 276.362ZM352.722 265.692C356.895 265.692 360.246 264.29 362.777 261.485C365.376 258.681 366.676 255.09 366.676 250.713C366.676 247.772 366.094 245.173 364.931 242.915C363.769 240.658 362.127 238.914 360.007 237.683C357.955 236.383 355.527 235.734 352.722 235.734C349.986 235.734 347.558 236.383 345.438 237.683C343.386 238.914 341.745 240.658 340.513 242.915C339.351 245.173 338.769 247.772 338.769 250.713C338.769 253.654 339.351 256.253 340.513 258.51C341.745 260.767 343.386 262.546 345.438 263.845C347.558 265.076 349.986 265.692 352.722 265.692ZM365.957 275.336V262.101L367.907 250.097L365.957 238.196V226.09H377.243V275.336H365.957Z" fill="#212121"/>
<path d="M311.65 275.336L290.823 250.2L311.548 226.09H324.988L301.186 253.175L301.699 246.712L326.014 275.336H311.65ZM280.358 275.336V201.466H291.644V275.336H280.358Z" fill="#212121"/>
<path d="M241.465 276.362C237.02 276.362 232.984 275.233 229.359 272.976C225.802 270.719 222.964 267.676 220.844 263.845C218.792 259.947 217.766 255.603 217.766 250.815C217.766 245.959 218.792 241.616 220.844 237.786C222.964 233.887 225.802 230.809 229.359 228.552C232.984 226.226 237.02 225.064 241.465 225.064C245.227 225.064 248.545 225.884 251.417 227.526C254.358 229.099 256.684 231.288 258.394 234.092C260.104 236.896 260.959 240.077 260.959 243.634V257.792C260.959 261.349 260.104 264.529 258.394 267.334C256.752 270.138 254.461 272.361 251.52 274.002C248.579 275.575 245.227 276.362 241.465 276.362ZM243.312 265.692C247.484 265.692 250.836 264.29 253.367 261.485C255.966 258.681 257.265 255.09 257.265 250.713C257.265 247.772 256.684 245.173 255.521 242.915C254.358 240.658 252.717 238.914 250.597 237.683C248.545 236.383 246.117 235.734 243.312 235.734C240.576 235.734 238.148 236.383 236.028 237.683C233.976 238.914 232.334 240.658 231.103 242.915C229.94 245.173 229.359 247.772 229.359 250.713C229.359 253.654 229.94 256.253 231.103 258.51C232.334 260.767 233.976 262.546 236.028 263.845C238.148 265.076 240.576 265.692 243.312 265.692ZM256.547 275.336V262.101L258.497 250.097L256.547 238.196V226.09H267.833V275.336H256.547Z" fill="#212121"/>
<path d="M132.475 275.336V226.09H143.76V275.336H132.475ZM165.203 275.336V245.993C165.203 242.71 164.177 240.18 162.125 238.401C160.073 236.554 157.542 235.631 154.533 235.631C152.481 235.631 150.634 236.041 148.993 236.862C147.42 237.683 146.154 238.88 145.197 240.453C144.239 241.958 143.76 243.805 143.76 245.993L139.349 243.531C139.349 239.769 140.169 236.52 141.811 233.784C143.452 231.048 145.675 228.928 148.48 227.423C151.284 225.85 154.43 225.064 157.919 225.064C161.407 225.064 164.553 225.816 167.358 227.321C170.162 228.826 172.385 230.946 174.026 233.682C175.668 236.418 176.489 239.701 176.489 243.531V275.336H165.203ZM197.931 275.336V245.993C197.931 242.71 196.905 240.18 194.853 238.401C192.802 236.554 190.271 235.631 187.261 235.631C185.278 235.631 183.465 236.041 181.824 236.862C180.182 237.683 178.883 238.88 177.925 240.453C176.967 241.958 176.489 243.805 176.489 245.993L170.128 243.531C170.47 239.769 171.564 236.52 173.411 233.784C175.257 231.048 177.617 228.928 180.49 227.423C183.431 225.85 186.646 225.064 190.134 225.064C193.691 225.064 196.905 225.816 199.778 227.321C202.651 228.826 204.942 230.946 206.652 233.682C208.362 236.418 209.217 239.701 209.217 243.531V275.336H197.931Z" fill="#212121"/>
<path d="M85.5939 276.362C80.4641 276.362 75.6762 275.404 71.2304 273.489C66.7845 271.574 62.8858 268.941 59.5343 265.589C56.1828 262.169 53.5495 258.237 51.6344 253.791C49.7876 249.276 48.8643 244.454 48.8643 239.325C48.8643 234.195 49.7876 229.407 51.6344 224.961C53.5495 220.515 56.1486 216.617 59.4317 213.265C62.7832 209.845 66.6477 207.212 71.0252 205.365C75.471 203.45 80.2589 202.492 85.3887 202.492C90.5186 202.492 95.2722 203.45 99.6497 205.365C104.096 207.212 107.994 209.845 111.346 213.265C114.697 216.617 117.296 220.549 119.143 225.064C121.058 229.51 122.016 234.297 122.016 239.427C122.016 244.557 121.058 249.379 119.143 253.893C117.296 258.339 114.697 262.238 111.346 265.589C108.063 268.941 104.198 271.574 99.7523 273.489C95.3748 275.404 90.6554 276.362 85.5939 276.362ZM85.3887 265.076C90.245 265.076 94.4856 263.982 98.1107 261.793C101.804 259.605 104.677 256.595 106.729 252.765C108.849 248.866 109.909 244.386 109.909 239.325C109.909 235.563 109.294 232.143 108.063 229.065C106.9 225.919 105.224 223.217 103.035 220.96C100.847 218.634 98.2475 216.856 95.238 215.625C92.2969 214.394 89.0138 213.778 85.3887 213.778C80.6009 213.778 76.3602 214.872 72.6667 217.061C69.0416 219.181 66.1689 222.157 64.0486 225.987C61.9967 229.817 60.9707 234.263 60.9707 239.325C60.9707 243.086 61.5521 246.575 62.7148 249.789C63.946 252.936 65.6217 255.637 67.7421 257.895C69.9308 260.152 72.5299 261.93 75.5394 263.23C78.5489 264.461 81.832 265.076 85.3887 265.076Z" fill="#212121"/>
<g clip-path="url(#clip0_17_994)">
<path d="M320.053 81.2978C328.644 86.2432 328.69 94.2872 320.157 99.2429L279.991 122.521C271.457 127.472 257.519 127.467 248.928 122.521L208.487 99.2326C199.897 94.2872 199.85 86.2432 208.383 81.2875L248.55 58.0142C257.083 53.0636 271.022 53.0688 279.612 58.0142L320.053 81.2978Z" fill="white"/>
<path d="M292.704 78.9182V78.9079L282.728 73.1658C281.468 80.2891 279.585 87.4071 282.391 94.4424C283.434 97.0651 285.27 99.4239 287.558 101.638L300.568 94.0958C299.541 93.087 298.56 92.0524 297.642 91.0127C294.13 87.0088 292.506 83.2066 292.698 78.913L292.704 78.9182Z" fill="#FF7345"/>
<path d="M223.157 86.1294C220.656 87.583 220.661 89.9367 223.188 91.3955L226.591 93.3509C226.788 90.3453 226.622 87.3502 226.222 84.355L223.157 86.1294Z" fill="#FF7345"/>
<path d="M279.29 71.2001L279.295 71.2053L279.29 71.2001Z" fill="#FF7345"/>
<path d="M277.972 93.4854C275.731 86.057 278.19 78.6337 279.29 71.2053L268.63 65.0701C266.788 64.0045 264.122 63.7251 261.839 64.2114C263.147 68.4119 263.764 72.6641 263.556 76.937C263.416 79.808 262.944 82.6842 262.13 85.519C261.201 88.7107 259.598 91.9076 260.112 95.1718C260.968 100.624 266.804 105.926 272.261 110.51L284.607 103.355C281.386 100.334 279.051 97.0909 277.972 93.4905V93.4854Z" fill="#FF7345"/>
<path d="M305.211 86.1242V86.1139L296.621 81.1685C296.678 82.0272 296.818 82.8807 297.124 83.7394C298.058 86.3622 300.091 88.8142 302.301 91.1472C302.696 91.561 303.1 91.9748 303.51 92.3835L305.237 91.38C307.748 89.9263 307.738 87.5726 305.217 86.1139L305.211 86.1242Z" fill="#FF7345"/>
<path d="M256.252 96.0615C254.862 90.2109 258.95 84.1585 259.442 78.3078C259.795 74.1073 259.365 69.9224 258.229 65.7995L245.525 73.1607C247.335 80.2684 245.26 87.5985 244.456 94.7941C244.134 97.6858 244.56 100.779 244.902 103.888L259.774 112.444C262.301 113.898 266.378 113.898 268.889 112.444L269.397 112.15C268.847 111.679 268.313 111.208 267.784 110.732C262.861 106.299 257.523 101.379 256.252 96.0563V96.0615Z" fill="#FF7345"/>
<path d="M241.914 75.2661L229.937 82.2031C230.621 86.4346 230.979 90.6816 230.476 94.9286C230.45 95.1304 230.419 95.3425 230.388 95.5442L240.405 101.307C240.239 98.8653 240.218 96.434 240.529 93.9613C241.313 87.7589 242.962 81.4219 241.909 75.2506V75.2609L241.914 75.2661Z" fill="#FF7345"/>
<path d="M335.926 90.8627C336.175 86.0259 333.099 81.1426 326.688 77.4491V77.4594L286.257 54.1706C273.968 47.094 254.1 47.094 241.889 54.1706L201.712 77.4439C195.575 80.9978 192.39 85.669 192.447 90.3298C192.447 90.2781 192.447 141.191 192.447 141.191C192.431 145.852 195.523 150.528 201.701 154.082V154.092L242.143 177.376V177.365C254.437 184.442 274.305 184.442 286.516 177.365L326.682 154.087V154.077C332.762 150.564 335.797 145.955 335.812 141.351L335.952 90.3454C335.952 90.5161 335.937 90.6868 335.932 90.8575L335.926 90.8627ZM320.146 99.2377L279.98 122.516C271.436 127.467 257.508 127.462 248.918 122.516L208.481 99.2326C199.891 94.282 199.844 86.2432 208.378 81.2874L248.544 58.0142C257.088 53.0636 271.016 53.0688 279.606 58.0142L320.048 81.2978C328.638 86.2483 328.685 94.2872 320.151 99.2429L320.146 99.2377Z" fill="#212121"/>
</g>
<defs>
<clipPath id="clip0_17_994">
<rect width="143.506" height="133.81" fill="white" transform="translate(192.446 48.8631)"/>
</clipPath>
</defs>
</svg>
